# xmcd
#
# Track frame offsets:
#	150
#	20625
#	36375
#	52425
#	70650
#	89025
#	106050
#	124800
#	139350
#	158025
#	184125
#	217350
#	225375
#	237900
#	249958
#	267900
#	299775
#	319050
#
# Disc length: 4485 seconds
#
# Revision: 2
# Processed by: cddbd v1.5.1PL2 Copyright (c) Steve Scherf et al.
# Submitted via: EasyCDDAExtractor 8.0.2.1
#
DISCID=1c118312
DTITLE=Alice Cooper - Reading Festival 31-08-87
DYEAR=1987
DGENRE=Hard Rock
TTITLE0=Welcome To My Nightmare
TTITLE1=Billion Dollar Babies
TTITLE2=No More Mr Nice Guy
TTITLE3=Be My Lover
TTITLE4=Eighteen
TTITLE5=The World Needs Guts
TTITLE6=Give It Up
TTITLE7=Cold Ethyl
TTITLE8=Only Women Bleed
TTITLE9=Go To Hell
TTITLE10=Ballad Of Dwight Fry
TTITLE11=Teenage Frankenstein
TTITLE12=Steven
TTITLE13=Sick Things
TTITLE14=I Love The Dead
TTITLE15=School's Out
TTITLE16=Elected
TTITLE17=Under My Wheels
EXTD=
EXTT0=
EXTT1=
EXTT2=
EXTT3=
EXTT4=
EXTT5=
EXTT6=
EXTT7=
EXTT8=
EXTT9=
EXTT10=
EXTT11=
EXTT12=
EXTT13=
EXTT14=
EXTT15=
EXTT16=
EXTT17=
PLAYORDER=
